<svg width="122" height="31" viewBox="0 0 122 31" fill="none" xmlns="http://www.w3.org/2000/svg">
<path d="M21.72 22.56V30H0.32V1.52H9.08V22.56H21.72ZM40.9153 0.76C45.182 0.76 48.622 2.14667 51.2353 4.92C53.8486 7.66666 55.1553 11.28 55.1553 15.76C55.1553 20.2133 53.8353 23.8133 51.1953 26.56C48.582 29.3067 45.1286 30.68 40.8353 30.68C36.462 30.68 32.942 29.32 30.2753 26.6C27.6086 23.8533 26.2753 20.2267 26.2753 15.72C26.2753 11.2133 27.6086 7.6 30.2753 4.88C32.942 2.13333 36.4886 0.76 40.9153 0.76ZM40.7953 7.76C39.0353 7.76 37.6486 8.45333 36.6353 9.84C35.6486 11.2267 35.1553 13.1467 35.1553 15.6C35.1553 18.1333 35.6486 20.1067 36.6353 21.52C37.622 22.9067 39.022 23.6 40.8353 23.6C42.622 23.6 43.982 22.9067 44.9153 21.52C45.8486 20.1067 46.3153 18.0533 46.3153 15.36C46.3153 12.9867 45.822 11.1333 44.8353 9.8C43.8753 8.44 42.5286 7.76 40.7953 7.76ZM87.3513 14.32V30H81.7913L81.5113 27.08C79.5113 29.4533 76.7646 30.64 73.2713 30.64C69.2446 30.64 65.9779 29.2667 63.4713 26.52C60.9646 23.7733 59.7113 20.1867 59.7113 15.76C59.7113 11.3867 61.0579 7.81333 63.7513 5.04C66.4713 2.24 69.9646 0.839999 74.2313 0.839999C77.4846 0.839999 80.3113 1.82667 82.7113 3.8C85.1379 5.74667 86.5379 8.30667 86.9113 11.48H78.5113C77.9246 9.26667 76.4446 8.16 74.0713 8.16C70.3646 8.16 68.5113 10.84 68.5113 16.2C68.5113 18.68 69.0179 20.56 70.0313 21.84C71.0446 23.12 72.5379 23.76 74.5113 23.76C77.1779 23.76 78.8046 22.6533 79.3913 20.44H75.6313V14.32H87.3513ZM107.084 0.76C111.351 0.76 114.791 2.14667 117.404 4.92C120.017 7.66666 121.324 11.28 121.324 15.76C121.324 20.2133 120.004 23.8133 117.364 26.56C114.751 29.3067 111.297 30.68 107.004 30.68C102.631 30.68 99.1107 29.32 96.4441 26.6C93.7774 23.8533 92.4441 20.2267 92.4441 15.72C92.4441 11.2133 93.7774 7.6 96.4441 4.88C99.1107 2.13333 102.657 0.76 107.084 0.76ZM106.964 7.76C105.204 7.76 103.817 8.45333 102.804 9.84C101.817 11.2267 101.324 13.1467 101.324 15.6C101.324 18.1333 101.817 20.1067 102.804 21.52C103.791 22.9067 105.191 23.6 107.004 23.6C108.791 23.6 110.151 22.9067 111.084 21.52C112.017 20.1067 112.484 18.0533 112.484 15.36C112.484 12.9867 111.991 11.1333 111.004 9.8C110.044 8.44 108.697 7.76 106.964 7.76Z" fill="#4E254F"/>
</svg>
